<svg xmlns="http://www.w3.org/2000/svg" width="52" height="52" fill="none"><circle cx="50" cy="14" r="2" fill="#E6A40B" transform="rotate(-180 50 14)"/><circle cx="50" cy="2" r="2" fill="#E6A40B" transform="rotate(-180 50 2)"/><circle cx="38" cy="38" r="2" fill="#E6A40B" transform="rotate(-180 38 38)"/><circle cx="38" cy="26" r="2" fill="#E6A40B" transform="rotate(-180 38 26)"/><circle cx="38" cy="14" r="2" fill="#E6A40B" transform="rotate(-180 38 14)"/><circle cx="38" cy="2" r="2" fill="#E6A40B" transform="rotate(-180 38 2)"/><circle cx="26" cy="38" r="2" fill="#E6A40B" transform="rotate(-180 26 38)"/><circle cx="26" cy="26" r="2" fill="#E6A40B" transform="rotate(-180 26 26)"/><circle cx="26" cy="14" r="2" fill="#E6A40B" transform="rotate(-180 26 14)"/><circle cx="26" cy="2" r="2" fill="#E6A40B" transform="rotate(-180 26 2)"/><circle cx="14" cy="50" r="2" fill="#E6A40B" transform="rotate(-180 14 50)"/><circle cx="14" cy="38" r="2" fill="#E6A40B" transform="rotate(-180 14 38)"/><circle cx="14" cy="26" r="2" fill="#E6A40B" transform="rotate(-180 14 26)"/><circle cx="14" cy="14" r="2" fill="#E6A40B" transform="rotate(-180 14 14)"/><circle cx="14" cy="2" r="2" fill="#E6A40B" transform="rotate(-180 14 2)"/><circle cx="2" cy="50" r="2" fill="#E6A40B" transform="rotate(-180 2 50)"/><circle cx="2" cy="38" r="2" fill="#E6A40B" transform="rotate(-180 2 38)"/><circle cx="2" cy="26" r="2" fill="#E6A40B" transform="rotate(-180 2 26)"/><circle cx="2" cy="14" r="2" fill="#E6A40B" transform="rotate(-180 2 14)"/><circle cx="2" cy="2" r="2" fill="#E6A40B" transform="rotate(-180 2 2)"/></svg>