<svg xmlns="http://www.w3.org/2000/svg" width="52" height="52" fill="none"><circle r="2" fill="#818181" fill-opacity=".3" transform="matrix(-1 0 0 1 50 38)"/><circle r="2" fill="#818181" fill-opacity=".3" transform="matrix(-1 0 0 1 50 50)"/><circle r="2" fill="#818181" fill-opacity=".3" transform="matrix(-1 0 0 1 38 14)"/><circle r="2" fill="#818181" fill-opacity=".3" transform="matrix(-1 0 0 1 38 26)"/><circle r="2" fill="#818181" fill-opacity=".3" transform="matrix(-1 0 0 1 38 38)"/><circle r="2" fill="#818181" fill-opacity=".3" transform="matrix(-1 0 0 1 38 50)"/><circle r="2" fill="#818181" fill-opacity=".3" transform="matrix(-1 0 0 1 26 14)"/><circle r="2" fill="#818181" fill-opacity=".3" transform="matrix(-1 0 0 1 26 26)"/><circle r="2" fill="#818181" fill-opacity=".3" transform="matrix(-1 0 0 1 26 38)"/><circle r="2" fill="#818181" fill-opacity=".3" transform="matrix(-1 0 0 1 26 50)"/><circle r="2" fill="#818181" fill-opacity=".3" transform="matrix(-1 0 0 1 14 2)"/><circle r="2" fill="#818181" fill-opacity=".3" transform="matrix(-1 0 0 1 14 14)"/><circle r="2" fill="#818181" fill-opacity=".3" transform="matrix(-1 0 0 1 14 26)"/><circle r="2" fill="#818181" fill-opacity=".3" transform="matrix(-1 0 0 1 14 38)"/><circle r="2" fill="#818181" fill-opacity=".3" transform="matrix(-1 0 0 1 14 50)"/><circle r="2" fill="#818181" fill-opacity=".3" transform="matrix(-1 0 0 1 2 2)"/><circle r="2" fill="#818181" fill-opacity=".3" transform="matrix(-1 0 0 1 2 14)"/><circle r="2" fill="#818181" fill-opacity=".3" transform="matrix(-1 0 0 1 2 26)"/><circle r="2" fill="#818181" fill-opacity=".3" transform="matrix(-1 0 0 1 2 38)"/><circle r="2" fill="#818181" fill-opacity=".3" transform="matrix(-1 0 0 1 2 50)"/></svg>