<svg xmlns="http://www.w3.org/2000/svg" width="52" height="60" fill="none"><ellipse cx="50" cy="16.154" fill="#818181" fill-opacity=".3" rx="2" ry="2.308" transform="rotate(-180 50 16.154)"/><ellipse cx="50" cy="2.308" fill="#818181" fill-opacity=".3" rx="2" ry="2.308" transform="rotate(-180 50 2.308)"/><ellipse cx="38" cy="43.846" fill="#818181" fill-opacity=".3" rx="2" ry="2.308" transform="rotate(-180 38 43.846)"/><ellipse cx="38" cy="30" fill="#818181" fill-opacity=".3" rx="2" ry="2.308" transform="rotate(-180 38 30)"/><ellipse cx="38" cy="16.154" fill="#818181" fill-opacity=".3" rx="2" ry="2.308" transform="rotate(-180 38 16.154)"/><ellipse cx="38" cy="2.308" fill="#818181" fill-opacity=".3" rx="2" ry="2.308" transform="rotate(-180 38 2.308)"/><ellipse cx="26" cy="43.846" fill="#818181" fill-opacity=".3" rx="2" ry="2.308" transform="rotate(-180 26 43.846)"/><ellipse cx="26" cy="30" fill="#818181" fill-opacity=".3" rx="2" ry="2.308" transform="rotate(-180 26 30)"/><ellipse cx="26" cy="16.154" fill="#818181" fill-opacity=".3" rx="2" ry="2.308" transform="rotate(-180 26 16.154)"/><ellipse cx="26" cy="2.308" fill="#818181" fill-opacity=".3" rx="2" ry="2.308" transform="rotate(-180 26 2.308)"/><ellipse cx="14" cy="57.692" fill="#818181" fill-opacity=".3" rx="2" ry="2.308" transform="rotate(-180 14 57.692)"/><ellipse cx="14" cy="43.846" fill="#818181" fill-opacity=".3" rx="2" ry="2.308" transform="rotate(-180 14 43.846)"/><ellipse cx="14" cy="30" fill="#818181" fill-opacity=".3" rx="2" ry="2.308" transform="rotate(-180 14 30)"/><ellipse cx="14" cy="16.154" fill="#818181" fill-opacity=".3" rx="2" ry="2.308" transform="rotate(-180 14 16.154)"/><ellipse cx="14" cy="2.308" fill="#818181" fill-opacity=".3" rx="2" ry="2.308" transform="rotate(-180 14 2.308)"/><ellipse cx="2" cy="57.692" fill="#818181" fill-opacity=".3" rx="2" ry="2.308" transform="rotate(-180 2 57.692)"/><ellipse cx="2" cy="43.846" fill="#818181" fill-opacity=".3" rx="2" ry="2.308" transform="rotate(-180 2 43.846)"/><ellipse cx="2" cy="30" fill="#818181" fill-opacity=".3" rx="2" ry="2.308" transform="rotate(-180 2 30)"/><ellipse cx="2" cy="16.154" fill="#818181" fill-opacity=".3" rx="2" ry="2.308" transform="rotate(-180 2 16.154)"/><ellipse cx="2" cy="2.308" fill="#818181" fill-opacity=".3" rx="2" ry="2.308" transform="rotate(-180 2 2.308)"/></svg>